<?xml version="1.0" standalone="no"?>
<!DOCTYPE svg PUBLIC "-//W3C//DTD SVG 20010904//EN"
 "http://www.w3.org/TR/2001/REC-SVG-20010904/DTD/svg10.dtd">
<svg version="1.0" xmlns="http://www.w3.org/2000/svg"
 width="247.000000pt" height="285.000000pt" viewBox="0 0 247.000000 285.000000"
 preserveAspectRatio="xMidYMid meet">

<g transform="translate(0.000000,285.000000) scale(0.100000,-0.100000)"
fill="#000000" stroke="none">
<path d="M2102 2748 c-24 -65 -101 -146 -255 -267 -85 -66 -174 -142 -197
-168 -43 -48 -90 -134 -90 -164 0 -9 16 -43 35 -75 56 -92 78 -177 73 -283 -3
-100 -6 -99 69 -39 89 71 185 218 239 366 l24 67 -4 -86 c-6 -103 -38 -204
-93 -286 -21 -32 -88 -110 -148 -173 -94 -98 -144 -164 -227 -300 -14 -22
-113 -69 -124 -58 -2 2 8 21 22 41 48 71 124 242 145 327 17 67 20 104 17 180
-6 119 -23 156 -136 308 -103 139 -141 218 -150 309 l-7 68 -47 -65 c-243
-340 -270 -725 -65 -947 22 -24 54 -51 71 -60 27 -14 31 -14 41 1 25 33 40
142 40 281 0 143 -11 209 -47 294 -25 58 -17 63 15 8 106 -180 115 -453 24
-722 -17 -50 -31 -74 -49 -84 -24 -14 -28 -13 -75 32 -187 177 -449 308 -725
362 -49 10 -88 21 -88 24 0 4 22 43 49 86 94 153 253 287 423 357 89 36 122
69 114 111 -17 84 -80 87 -231 12 -265 -131 -456 -349 -554 -629 -84 -240 -78
-526 15 -762 101 -253 296 -465 539 -584 498 -245 1072 -96 1399 363 165 231
232 565 171 851 -18 84 -36 106 -85 106 -67 0 -92 -50 -71 -140 l8 -36 -157 4
c-87 3 -195 -1 -240 -7 -46 -6 -86 -9 -88 -6 -10 10 96 113 271 263 204 176
280 261 343 387 98 198 97 398 -4 564 -36 60 -156 201 -171 201 -4 0 -12 -15
-19 -32z m-1661 -1294 c219 -41 419 -135 607 -283 29 -24 52 -46 50 -50 -2 -5
-30 -30 -62 -56 -41 -33 -63 -45 -72 -39 -7 5 -37 28 -67 52 -124 97 -297 176
-454 206 -77 15 -126 24 -150 25 -16 1 -16 31 -2 104 14 67 14 67 150 41z
m1723 -250 l38 -7 -7 -81 c-4 -45 -8 -82 -9 -83 -1 -1 -31 2 -66 7 -485 70
-977 -188 -1195 -627 -26 -51 -48 -93 -51 -93 -2 0 -34 14 -69 32 -43 21 -65
37 -65 49 0 9 21 57 47 106 132 250 349 459 604 581 138 66 248 97 454 126 39
6 269 -2 319 -10z m-1729 -91 c126 -31 222 -73 325 -143 97 -66 97 -66 39
-137 l-50 -62 -52 40 c-78 59 -205 118 -306 142 l-90 22 -10 45 c-5 25 -12 62
-15 83 l-5 39 52 -7 c29 -4 79 -13 112 -22z m1673 -239 c29 -8 28 -17 -11 -93
l-33 -63 -115 -3 c-137 -3 -239 -28 -355 -85 -85 -41 -181 -112 -239 -177 -36
-38 -129 -171 -137 -193 -5 -17 -158 -2 -164 15 -14 35 129 249 222 335 141
130 312 218 494 255 67 14 298 19 338 9z m-1588 -146 c71 -40 130 -88 130
-105 0 -12 -45 -110 -56 -122 -18 -19 -214 236 -214 277 0 15 68 -9 140 -50z
m1365 -224 c-71 -65 -155 -121 -249 -164 -78 -37 -203 -76 -213 -67 -8 8 108
126 154 157 100 68 238 119 323 119 l35 0 -50 -45z"/>
</g>
</svg>
